<svg xmlns="http://www.w3.org/2000/svg" viewBox="0 0 900 645">
  <defs><linearGradient id="g" x1="0" x2="1"><stop stop-color="#ffffff"/><stop offset="1" stop-color="#eef3ff"/></linearGradient></defs>
  <rect width="900" height="645" rx="34" fill="url(#g)"/>
  <rect x="0" y="0" width="900" height="56" rx="34" fill="#090d24"/>
  <circle cx="32" cy="28" r="7" fill="#ef6f6c"/><circle cx="56" cy="28" r="7" fill="#641bff"/><circle cx="80" cy="28" r="7" fill="#0aa8ff"/>
  <text x="118" y="34" font-family="ui-sans-serif,system-ui" font-size="15" fill="#e6ecff" font-weight="700">Bendit — local DuckDB workbench</text>
  <rect x="26" y="82" width="190" height="514" rx="18" fill="#11183a"/>
  <text x="50" y="118" fill="#9eb7ff" font-family="ui-monospace,monospace" font-size="15" font-weight="700">Files</text>
  <rect x="46" y="143" width="130" height="30" rx="8" fill="#202a5a"/><text x="58" y="163" fill="#e6ecff" font-family="ui-sans-serif" font-size="13">orders.xlsx</text>
  <rect x="46" y="188" width="145" height="30" rx="8" fill="#202a5a"/><text x="58" y="208" fill="#e6ecff" font-family="ui-sans-serif" font-size="13">customers.csv</text>
  <rect x="46" y="233" width="118" height="30" rx="8" fill="#202a5a"/><text x="58" y="253" fill="#e6ecff" font-family="ui-sans-serif" font-size="13">stock.parquet</text>
  <rect x="244" y="82" width="630" height="238" rx="18" fill="#090d24"/>
  <text x="270" y="122" fill="#9eb7ff" font-family="ui-monospace,monospace" font-size="15">SQL transformation</text>
  <text x="270" y="160" fill="#e6ecff" font-family="ui-monospace,monospace" font-size="16">select</text>
  <text x="300" y="188" fill="#8fb3ff" font-family="ui-monospace,monospace" font-size="16">trim(customer_name) as customer_name,</text>
  <text x="300" y="216" fill="#8fb3ff" font-family="ui-monospace,monospace" font-size="16">try_cast(order_date as date) as order_date,</text>
  <text x="300" y="244" fill="#8fb3ff" font-family="ui-monospace,monospace" font-size="16">amount::decimal(18,2) as amount</text>
  <text x="270" y="272" fill="#e6ecff" font-family="ui-monospace,monospace" font-size="16">from imported_excel;</text>
  <rect x="244" y="344" width="630" height="252" rx="18" fill="#ffffff" stroke="#dbe3f8"/>
  <text x="270" y="382" fill="#185cff" font-family="ui-sans-serif" font-size="16" font-weight="800">Result preview</text>
  <rect x="270" y="410" width="570" height="34" rx="8" fill="#eef3ff"/>
  <text x="292" y="432" fill="#5a6477" font-family="ui-monospace,monospace" font-size="13">customer_name</text><text x="475" y="432" fill="#5a6477" font-family="ui-monospace,monospace" font-size="13">order_date</text><text x="650" y="432" fill="#5a6477" font-family="ui-monospace,monospace" font-size="13">amount</text>
  <g font-family="ui-monospace,monospace" font-size="14" fill="#0c1025">
    <text x="292" y="477">ACME Tools</text><text x="475" y="477">2026-07-06</text><text x="650" y="477">1240.50</text>
    <text x="292" y="520">Blue Parts BV</text><text x="475" y="520">2026-07-05</text><text x="650" y="520">842.10</text>
    <text x="292" y="563">Northwind</text><text x="475" y="563">2026-07-04</text><text x="650" y="563">304.95</text>
  </g>
</svg>